<?xml version="1.0" encoding="iso-8859-1"?>
<!-- Uploaded to: SVG Repo, www.svgrepo.com, Generator: SVG Repo Mixer Tools -->
<!DOCTYPE svg PUBLIC "-//W3C//DTD SVG 1.1//EN" "http://www.w3.org/Graphics/SVG/1.1/DTD/svg11.dtd">
<svg fill="#000000" height="800px" width="800px" version="1.1" id="Capa_1" xmlns="http://www.w3.org/2000/svg" xmlns:xlink="http://www.w3.org/1999/xlink" 
	 viewBox="0 0 490 490" xml:space="preserve">
<path d="M489.982,276.905c-9.327-57.571-38.934-110.406-83.364-148.773c-22.04-19.031-46.918-33.895-73.942-44.176
	C304.671,73.301,275.174,67.899,245,67.899c-30.173,0-59.671,5.402-87.675,16.058c-27.024,10.281-51.902,25.145-73.943,44.176
	C38.951,166.498,9.345,219.333,0.018,276.905c-0.104,0.643,0.242,1.273,0.839,1.532l233.11,100.837c0,0-21.035,19.462-28.045,25.952
	c-0.283,0.263-0.448,0.629-0.456,1.016c-0.007,0.387,0.167,0.737,0.417,1.033c1.052,1.25,15.103,14.827,39.116,14.827
	s38.442-13.898,39.117-14.827c0.227-0.314,0.424-0.647,0.416-1.033c-0.008-0.387-0.172-0.753-0.456-1.016
	c-7.01-6.49-28.045-25.952-28.045-25.952l233.11-100.837C489.74,278.178,490.086,277.547,489.982,276.905z M253.532,247.659v-76.966
	c22.263,1.097,43.701,6.434,63.774,15.876l-38.273,66.292C270.796,250.095,262.23,248.347,253.532,247.659z M294.828,259.633
	l37.545-65.031c16.26,9.747,30.686,22.053,42.914,36.604l-57.316,44.938C311,269.617,303.226,264.072,294.828,259.633z
	 M329.492,288.794l56.111-43.992c10.363,15.176,18.134,31.776,23.118,49.385l-62.087,27.033
	C342.842,309.487,337.082,298.591,329.492,288.794z M81.26,294.256c4.982-17.634,12.761-34.261,23.137-49.454l56.111,43.992
	c-7.605,9.816-13.372,20.734-17.165,32.494L81.26,294.256z M114.712,231.206c12.375-14.725,26.983-27.141,43.454-36.934
	l37.568,65.07c-8.62,4.489-16.583,10.133-23.705,16.8L114.712,231.206z M236.468,170.694v76.966c-8.473,0.67-16.834,2.351-24.887,5
	l-38.314-66.361C193.171,177.027,214.418,171.781,236.468,170.694z"/>
</svg>
